<svg width="24" height="24" viewBox="0 0 24 24" fill="none" xmlns="http://www.w3.org/2000/svg">
<path d="M12 10.1C9.7 8.2 10.4 5.1 12 4C13.6 5.1 14.3 8.2 12 10.1Z" stroke="#000000" stroke-width="1.5" stroke-linejoin="round"/>
<path d="M13.7 11.4C14.6 8.6 17.8 8.2 19.3 9.4C18.8 11.3 16.1 12.9 13.7 11.4Z" stroke="#000000" stroke-width="1.5" stroke-linejoin="round"/>
<path d="M13.1 13.4C16 13.3 17.3 16.2 16.7 18C14.8 18.1 12.5 16 13.1 13.4Z" stroke="#000000" stroke-width="1.5" stroke-linejoin="round"/>
<path d="M10.9 13.4C11.5 16 9.2 18.1 7.3 18C6.7 16.2 8 13.3 10.9 13.4Z" stroke="#000000" stroke-width="1.5" stroke-linejoin="round"/>
<path d="M10.3 11.4C7.9 12.9 5.2 11.3 4.7 9.4C6.2 8.2 9.4 8.6 10.3 11.4Z" stroke="#000000" stroke-width="1.5" stroke-linejoin="round"/>
<circle cx="12" cy="12" r="2" stroke="#000000" stroke-width="1.5"/>
</svg>
